G04 #@! TF.GenerationSoftware,KiCad,Pcbnew,(5.1.5)-3*
G04 #@! TF.CreationDate,2020-04-03T16:25:13+03:00*
G04 #@! TF.ProjectId,MSX USB Drive,4d535820-5553-4422-9044-726976652e6b,rev?*
G04 #@! TF.SameCoordinates,Original*
G04 #@! TF.FileFunction,Copper,L2,Bot*
G04 #@! TF.FilePolarity,Positive*
%FSLAX46Y46*%
G04 Gerber Fmt 4.6, Leading zero omitted, Abs format (unit mm)*
G04 Created by KiCad (PCBNEW (5.1.5)-3) date 2020-04-03 16:25:14*
%MOMM*%
%LPD*%
G04 APERTURE LIST*
%ADD10C,1.600000*%
%ADD11R,1.500000X11.000000*%
%ADD12R,1.700000X1.700000*%
%ADD13O,1.700000X1.700000*%
%ADD14R,1.600000X1.600000*%
%ADD15O,1.600000X1.600000*%
%ADD16C,1.000000*%
%ADD17C,0.800000*%
%ADD18C,0.750000*%
%ADD19C,0.250000*%
G04 APERTURE END LIST*
D10*
X195580000Y-95250000D03*
X195580000Y-92750000D03*
X158750000Y-128310000D03*
X158750000Y-130810000D03*
X146050000Y-105410000D03*
X146050000Y-102910000D03*
X163830000Y-114340000D03*
X163830000Y-116840000D03*
X195580000Y-116840000D03*
X195580000Y-114340000D03*
D11*
X128790000Y-143637000D03*
X131330000Y-143637000D03*
X133870000Y-143637000D03*
X136410000Y-143637000D03*
X138950000Y-143637000D03*
X141490000Y-143637000D03*
X144030000Y-143637000D03*
X146570000Y-143637000D03*
X149110000Y-143637000D03*
X151650000Y-143637000D03*
X154190000Y-143637000D03*
X156730000Y-143637000D03*
X159270000Y-143637000D03*
X161810000Y-143637000D03*
X164350000Y-143637000D03*
X166890000Y-143637000D03*
X169430000Y-143637000D03*
X171970000Y-143637000D03*
X174510000Y-143637000D03*
X177050000Y-143637000D03*
X179590000Y-143637000D03*
X182130000Y-143637000D03*
X184670000Y-143637000D03*
X187210000Y-143637000D03*
X189750000Y-143637000D03*
D12*
X140970000Y-90170000D03*
D13*
X140970000Y-92710000D03*
X138430000Y-90170000D03*
X138430000Y-92710000D03*
X135890000Y-90170000D03*
X135890000Y-92710000D03*
X133350000Y-90170000D03*
X133350000Y-92710000D03*
X130810000Y-90170000D03*
X130810000Y-92710000D03*
X128270000Y-90170000D03*
X128270000Y-92710000D03*
X125730000Y-90170000D03*
X125730000Y-92710000D03*
X123190000Y-90170000D03*
X123190000Y-92710000D03*
D14*
X153670000Y-125730000D03*
D15*
X138430000Y-133350000D03*
X151130000Y-125730000D03*
X140970000Y-133350000D03*
X148590000Y-125730000D03*
X143510000Y-133350000D03*
X146050000Y-125730000D03*
X146050000Y-133350000D03*
X143510000Y-125730000D03*
X148590000Y-133350000D03*
X140970000Y-125730000D03*
X151130000Y-133350000D03*
X138430000Y-125730000D03*
X153670000Y-133350000D03*
D14*
X140970000Y-100330000D03*
D15*
X118110000Y-107950000D03*
X138430000Y-100330000D03*
X120650000Y-107950000D03*
X135890000Y-100330000D03*
X123190000Y-107950000D03*
X133350000Y-100330000D03*
X125730000Y-107950000D03*
X130810000Y-100330000D03*
X128270000Y-107950000D03*
X128270000Y-100330000D03*
X130810000Y-107950000D03*
X125730000Y-100330000D03*
X133350000Y-107950000D03*
X123190000Y-100330000D03*
X135890000Y-107950000D03*
X120650000Y-100330000D03*
X138430000Y-107950000D03*
X118110000Y-100330000D03*
X140970000Y-107950000D03*
D14*
X190500000Y-111760000D03*
D15*
X172720000Y-119380000D03*
X187960000Y-111760000D03*
X175260000Y-119380000D03*
X185420000Y-111760000D03*
X177800000Y-119380000D03*
X182880000Y-111760000D03*
X180340000Y-119380000D03*
X180340000Y-111760000D03*
X182880000Y-119380000D03*
X177800000Y-111760000D03*
X185420000Y-119380000D03*
X175260000Y-111760000D03*
X187960000Y-119380000D03*
X172720000Y-111760000D03*
X190500000Y-119380000D03*
X158750000Y-119380000D03*
X140970000Y-111760000D03*
X156210000Y-119380000D03*
X143510000Y-111760000D03*
X153670000Y-119380000D03*
X146050000Y-111760000D03*
X151130000Y-119380000D03*
X148590000Y-111760000D03*
X148590000Y-119380000D03*
X151130000Y-111760000D03*
X146050000Y-119380000D03*
X153670000Y-111760000D03*
X143510000Y-119380000D03*
X156210000Y-111760000D03*
X140970000Y-119380000D03*
D14*
X158750000Y-111760000D03*
X190500000Y-86360000D03*
D15*
X152400000Y-101600000D03*
X187960000Y-86360000D03*
X154940000Y-101600000D03*
X185420000Y-86360000D03*
X157480000Y-101600000D03*
X182880000Y-86360000D03*
X160020000Y-101600000D03*
X180340000Y-86360000D03*
X162560000Y-101600000D03*
X177800000Y-86360000D03*
X165100000Y-101600000D03*
X175260000Y-86360000D03*
X167640000Y-101600000D03*
X172720000Y-86360000D03*
X170180000Y-101600000D03*
X170180000Y-86360000D03*
X172720000Y-101600000D03*
X167640000Y-86360000D03*
X175260000Y-101600000D03*
X165100000Y-86360000D03*
X177800000Y-101600000D03*
X162560000Y-86360000D03*
X180340000Y-101600000D03*
X160020000Y-86360000D03*
X182880000Y-101600000D03*
X157480000Y-86360000D03*
X185420000Y-101600000D03*
X154940000Y-86360000D03*
X187960000Y-101600000D03*
X152400000Y-86360000D03*
X190500000Y-101600000D03*
D16*
X142535700Y-97294400D03*
D17*
X148974800Y-115462000D03*
X165675200Y-108351200D03*
X166947300Y-107288400D03*
X163685400Y-98284200D03*
X175143000Y-113539400D03*
X145985200Y-96310500D03*
X163671300Y-112301100D03*
X171966300Y-136029400D03*
X157524700Y-122038600D03*
X146877400Y-91937300D03*
X171962300Y-133867200D03*
X156551600Y-121313300D03*
X146080300Y-92740300D03*
X173985000Y-137055300D03*
X172809800Y-134609700D03*
X152908700Y-104949100D03*
X166865200Y-109945300D03*
X178907100Y-129156400D03*
X166890000Y-136754400D03*
X152319600Y-118025800D03*
X142510100Y-101484800D03*
X160832300Y-129505900D03*
X153839100Y-94687200D03*
X152815500Y-137612400D03*
X165389900Y-104975400D03*
X149860100Y-137527800D03*
X158013700Y-88400700D03*
X144688400Y-117809500D03*
X143510000Y-131802400D03*
X164717100Y-108821100D03*
X175491300Y-107808200D03*
D18*
X158750000Y-119380000D02*
X158750000Y-120855300D01*
X157193000Y-129253000D02*
X157193000Y-124483600D01*
X157193000Y-124483600D02*
X158750000Y-122926600D01*
X158750000Y-122926600D02*
X158750000Y-120855300D01*
X140970000Y-107950000D02*
X139467500Y-109452500D01*
X139467500Y-109452500D02*
X137392500Y-109452500D01*
X137392500Y-109452500D02*
X135890000Y-107950000D01*
X147553300Y-103873700D02*
X147553300Y-102312000D01*
X147553300Y-102312000D02*
X142535700Y-97294400D01*
X147553300Y-103873700D02*
X147553300Y-103906700D01*
X147553300Y-103906700D02*
X146050000Y-105410000D01*
X147553300Y-103873700D02*
X153444400Y-103873700D01*
X153444400Y-103873700D02*
X161761200Y-112190500D01*
X161761200Y-112190500D02*
X161761200Y-116368800D01*
X158750000Y-119380000D02*
X158750000Y-117904700D01*
X161761200Y-116368800D02*
X162232400Y-116840000D01*
X162232400Y-116840000D02*
X163830000Y-116840000D01*
X158750000Y-117904700D02*
X160225300Y-117904700D01*
X160225300Y-117904700D02*
X161761200Y-116368800D01*
X153670000Y-133350000D02*
X153670000Y-131874700D01*
X157193000Y-129253000D02*
X158750000Y-130810000D01*
X153670000Y-131874700D02*
X154571300Y-131874700D01*
X154571300Y-131874700D02*
X157193000Y-129253000D01*
X190500000Y-101600000D02*
X190500000Y-103075300D01*
X190500000Y-103075300D02*
X191975300Y-104550600D01*
X191975300Y-104550600D02*
X191975300Y-113235300D01*
X191975300Y-113235300D02*
X195580000Y-116840000D01*
X190500000Y-119380000D02*
X190500000Y-131832200D01*
X190500000Y-131832200D02*
X187210000Y-135122200D01*
X187210000Y-135122200D02*
X187210000Y-143637000D01*
X187210000Y-143637000D02*
X184670000Y-143637000D01*
X158750000Y-128310000D02*
X165319600Y-121740400D01*
X165319600Y-121740400D02*
X165319600Y-115829600D01*
X165319600Y-115829600D02*
X163830000Y-114340000D01*
X140970000Y-98850000D02*
X140970000Y-100330000D01*
X150924700Y-86360000D02*
X140970000Y-96314700D01*
X140970000Y-96314700D02*
X140970000Y-98850000D01*
X135890000Y-100330000D02*
X137370000Y-98850000D01*
X137370000Y-98850000D02*
X140970000Y-98850000D01*
X152400000Y-86360000D02*
X150924700Y-86360000D01*
X124992300Y-105737000D02*
X125730000Y-106474700D01*
X124992300Y-102543000D02*
X124992300Y-105737000D01*
X124992300Y-105737000D02*
X122863000Y-105737000D01*
X122863000Y-105737000D02*
X120650000Y-107950000D01*
X124992300Y-102543000D02*
X122863000Y-102543000D01*
X122863000Y-102543000D02*
X120650000Y-100330000D01*
X125730000Y-101805300D02*
X124992300Y-102543000D01*
X146050000Y-117904700D02*
X146050000Y-117650400D01*
X146050000Y-117650400D02*
X141634900Y-113235300D01*
X141634900Y-113235300D02*
X140970000Y-113235300D01*
X130810000Y-107950000D02*
X129334700Y-106474700D01*
X129334700Y-106474700D02*
X125730000Y-106474700D01*
X130810000Y-108548100D02*
X130810000Y-107950000D01*
X130810000Y-108548100D02*
X130810000Y-109425300D01*
X125730000Y-107950000D02*
X125730000Y-106474700D01*
X142445300Y-100330000D02*
X143470000Y-100330000D01*
X143470000Y-100330000D02*
X146050000Y-102910000D01*
X195580000Y-114340000D02*
X197059100Y-112860900D01*
X197059100Y-112860900D02*
X197059100Y-94229100D01*
X197059100Y-94229100D02*
X195580000Y-92750000D01*
X125730000Y-100330000D02*
X125730000Y-101805300D01*
X177800000Y-119380000D02*
X177800000Y-120855300D01*
X177800000Y-120855300D02*
X177800000Y-129606100D01*
X177800000Y-129606100D02*
X179590000Y-131396100D01*
X179590000Y-131396100D02*
X179590000Y-143637000D01*
X146050000Y-119380000D02*
X146050000Y-117904700D01*
X140970000Y-111760000D02*
X140970000Y-113235300D01*
X138430000Y-115397800D02*
X140592500Y-113235300D01*
X140592500Y-113235300D02*
X140970000Y-113235300D01*
X138430000Y-115397800D02*
X136782500Y-115397800D01*
X136782500Y-115397800D02*
X130810000Y-109425300D01*
X138430000Y-124254700D02*
X138430000Y-115397800D01*
X140970000Y-100330000D02*
X142445300Y-100330000D01*
X138430000Y-125730000D02*
X138430000Y-124254700D01*
X140970000Y-133350000D02*
X140970000Y-129745300D01*
X140970000Y-129745300D02*
X138430000Y-127205300D01*
X182130000Y-143637000D02*
X179590000Y-143637000D01*
X143510000Y-133350000D02*
X140970000Y-133350000D01*
X138430000Y-125730000D02*
X138430000Y-127205300D01*
D19*
X141490000Y-137811700D02*
X141298000Y-137811700D01*
X141298000Y-137811700D02*
X128270000Y-124783700D01*
X128270000Y-124783700D02*
X128270000Y-109075300D01*
X128270000Y-107950000D02*
X128270000Y-109075300D01*
X141490000Y-143637000D02*
X141490000Y-137811700D01*
X148550400Y-115855500D02*
X148943900Y-115462000D01*
X148943900Y-115462000D02*
X148974800Y-115462000D01*
X145554200Y-134475400D02*
X144850700Y-133771900D01*
X144850700Y-133771900D02*
X144850700Y-124654600D01*
X144850700Y-124654600D02*
X146485700Y-123019600D01*
X146485700Y-123019600D02*
X146485700Y-121510400D01*
X146485700Y-121510400D02*
X147370000Y-120626100D01*
X147370000Y-120626100D02*
X147370000Y-117035900D01*
X147370000Y-117035900D02*
X148550400Y-115855500D01*
X148550400Y-115855500D02*
X144780000Y-112085100D01*
X144780000Y-112085100D02*
X144780000Y-109967100D01*
X144780000Y-109967100D02*
X138351000Y-103538100D01*
X138351000Y-103538100D02*
X137343000Y-103538100D01*
X137343000Y-103538100D02*
X134656700Y-100851800D01*
X134656700Y-100851800D02*
X134656700Y-99757900D01*
X134656700Y-99757900D02*
X140529300Y-93885300D01*
X140529300Y-93885300D02*
X140970000Y-93885300D01*
X140970000Y-92710000D02*
X140970000Y-93885300D01*
X145554200Y-134475400D02*
X146620800Y-134475400D01*
X146620800Y-134475400D02*
X147464700Y-133631500D01*
X147464700Y-133631500D02*
X147464700Y-133350000D01*
X145554200Y-134475400D02*
X145554200Y-136287500D01*
X145554200Y-136287500D02*
X144030000Y-137811700D01*
X144030000Y-143637000D02*
X144030000Y-137811700D01*
X148590000Y-133350000D02*
X147464700Y-133350000D01*
X165675200Y-108351200D02*
X165675200Y-110037000D01*
X165675200Y-110037000D02*
X167046600Y-111408400D01*
X167046600Y-111408400D02*
X167046600Y-124954500D01*
X167046600Y-124954500D02*
X156917000Y-135084100D01*
X156917000Y-135084100D02*
X153472800Y-135084100D01*
X153472800Y-135084100D02*
X149110000Y-139446900D01*
X149110000Y-139446900D02*
X149110000Y-143637000D01*
X166947300Y-107288400D02*
X167603800Y-107944900D01*
X167603800Y-107944900D02*
X167603800Y-125034200D01*
X167603800Y-125034200D02*
X157045900Y-135592100D01*
X157045900Y-135592100D02*
X153810100Y-135592100D01*
X153810100Y-135592100D02*
X151650000Y-137752200D01*
X151650000Y-137752200D02*
X151650000Y-137811700D01*
X151650000Y-143637000D02*
X151650000Y-137811700D01*
X163685400Y-98284200D02*
X163685400Y-102238300D01*
X163685400Y-102238300D02*
X168525100Y-107078000D01*
X168525100Y-107078000D02*
X168525100Y-125386700D01*
X168525100Y-125386700D02*
X157122300Y-136789500D01*
X157122300Y-136789500D02*
X155212200Y-136789500D01*
X155212200Y-136789500D02*
X154190000Y-137811700D01*
X154190000Y-143637000D02*
X154190000Y-137811700D01*
X181754700Y-86360000D02*
X181754700Y-86078700D01*
X181754700Y-86078700D02*
X180883600Y-85207600D01*
X180883600Y-85207600D02*
X164606300Y-85207600D01*
X164606300Y-85207600D02*
X163973200Y-85840700D01*
X163973200Y-85840700D02*
X163973200Y-91862700D01*
X163973200Y-91862700D02*
X166370000Y-94259500D01*
X166370000Y-94259500D02*
X166370000Y-104285900D01*
X166370000Y-104285900D02*
X169023600Y-106939500D01*
X169023600Y-106939500D02*
X169023600Y-125525100D01*
X169023600Y-125525100D02*
X156737000Y-137811700D01*
X156737000Y-137811700D02*
X156730000Y-137811700D01*
X156730000Y-143637000D02*
X156730000Y-137811700D01*
X182880000Y-86360000D02*
X181754700Y-86360000D01*
X165100000Y-86360000D02*
X165100000Y-87485300D01*
X165100000Y-87485300D02*
X169023400Y-91408700D01*
X169023400Y-91408700D02*
X169023400Y-102725400D01*
X169023400Y-102725400D02*
X169474000Y-103176000D01*
X169474000Y-103176000D02*
X169474000Y-125711600D01*
X169474000Y-125711600D02*
X161810000Y-133375600D01*
X161810000Y-133375600D02*
X161810000Y-143637000D01*
X164350000Y-143637000D02*
X164350000Y-134189100D01*
X164350000Y-134189100D02*
X170198700Y-128340400D01*
X170198700Y-128340400D02*
X170198700Y-103172900D01*
X170198700Y-103172900D02*
X171328600Y-102043000D01*
X171328600Y-102043000D02*
X171328600Y-88633900D01*
X171328600Y-88633900D02*
X170180000Y-87485300D01*
X170180000Y-86360000D02*
X170180000Y-87485300D01*
X166890000Y-143637000D02*
X166890000Y-137811700D01*
X175260000Y-86360000D02*
X175260000Y-87485300D01*
X175260000Y-87485300D02*
X176385800Y-88611100D01*
X176385800Y-88611100D02*
X176385800Y-104196700D01*
X176385800Y-104196700D02*
X171494700Y-109087800D01*
X171494700Y-109087800D02*
X171494700Y-130318100D01*
X171494700Y-130318100D02*
X167965300Y-133847500D01*
X167965300Y-133847500D02*
X167965300Y-136736400D01*
X167965300Y-136736400D02*
X166890000Y-137811700D01*
X175143000Y-113539400D02*
X174809600Y-113872800D01*
X174809600Y-113872800D02*
X174809600Y-118030200D01*
X174809600Y-118030200D02*
X173990000Y-118849800D01*
X173990000Y-118849800D02*
X173990000Y-129773900D01*
X173990000Y-129773900D02*
X169430000Y-134333900D01*
X169430000Y-134333900D02*
X169430000Y-143637000D01*
X190500000Y-111760000D02*
X190500000Y-113564800D01*
X190500000Y-113564800D02*
X195033100Y-118097900D01*
X195033100Y-118097900D02*
X196104400Y-118097900D01*
X196104400Y-118097900D02*
X197863200Y-116339100D01*
X197863200Y-116339100D02*
X197863200Y-91662000D01*
X197863200Y-91662000D02*
X190508100Y-84306900D01*
X190508100Y-84306900D02*
X160377100Y-84306900D01*
X160377100Y-84306900D02*
X158605300Y-86078700D01*
X158605300Y-86078700D02*
X158605300Y-86360000D01*
X157480000Y-86360000D02*
X158605300Y-86360000D01*
X171970000Y-143637000D02*
X171970000Y-137811700D01*
X185420000Y-111760000D02*
X184294700Y-111760000D01*
X184294700Y-111760000D02*
X184294700Y-111478700D01*
X184294700Y-111478700D02*
X183379000Y-110563000D01*
X183379000Y-110563000D02*
X179924600Y-110563000D01*
X179924600Y-110563000D02*
X179214600Y-111273000D01*
X179214600Y-111273000D02*
X179214600Y-114145900D01*
X179214600Y-114145900D02*
X176459300Y-116901200D01*
X176459300Y-116901200D02*
X176459300Y-128018300D01*
X176459300Y-128018300D02*
X171230100Y-133247500D01*
X171230100Y-133247500D02*
X171230100Y-137071800D01*
X171230100Y-137071800D02*
X171970000Y-137811700D01*
X151274700Y-101600000D02*
X145985200Y-96310500D01*
X152400000Y-101600000D02*
X151274700Y-101600000D01*
X152962700Y-101600000D02*
X152400000Y-101600000D01*
X152962700Y-101600000D02*
X153525300Y-101600000D01*
X153525300Y-101600000D02*
X153525300Y-102155100D01*
X153525300Y-102155100D02*
X163671300Y-112301100D01*
X156354700Y-101600000D02*
X156354700Y-101414600D01*
X156354700Y-101414600D02*
X146877400Y-91937300D01*
X171966300Y-136029400D02*
X171966300Y-136062300D01*
X171966300Y-136062300D02*
X173715700Y-137811700D01*
X173715700Y-137811700D02*
X174510000Y-137811700D01*
X174510000Y-143637000D02*
X174510000Y-137811700D01*
X158750000Y-112885300D02*
X157524700Y-114110600D01*
X157524700Y-114110600D02*
X157524700Y-122038600D01*
X158750000Y-111760000D02*
X158750000Y-112885300D01*
X157480000Y-101600000D02*
X156354700Y-101600000D01*
X177050000Y-137811700D02*
X173105500Y-133867200D01*
X173105500Y-133867200D02*
X171962300Y-133867200D01*
X153670000Y-111760000D02*
X153670000Y-117579600D01*
X153670000Y-117579600D02*
X154795600Y-118705200D01*
X154795600Y-118705200D02*
X154795600Y-119557300D01*
X154795600Y-119557300D02*
X156551600Y-121313300D01*
X177050000Y-143637000D02*
X177050000Y-137811700D01*
X140970000Y-90170000D02*
X142145300Y-90170000D01*
X162560000Y-101600000D02*
X162560000Y-100474700D01*
X162560000Y-100474700D02*
X162560000Y-93975300D01*
X162560000Y-93975300D02*
X156210000Y-87625300D01*
X156210000Y-87625300D02*
X156210000Y-86014500D01*
X156210000Y-86014500D02*
X154866600Y-84671100D01*
X154866600Y-84671100D02*
X147644200Y-84671100D01*
X147644200Y-84671100D02*
X142145300Y-90170000D01*
X160020000Y-100474700D02*
X160020000Y-99842300D01*
X160020000Y-99842300D02*
X153740700Y-93563000D01*
X153740700Y-93563000D02*
X153740700Y-85952300D01*
X153740700Y-85952300D02*
X152909900Y-85121500D01*
X152909900Y-85121500D02*
X150044600Y-85121500D01*
X150044600Y-85121500D02*
X143820800Y-91345300D01*
X143820800Y-91345300D02*
X139972500Y-91345300D01*
X139972500Y-91345300D02*
X139605300Y-90978100D01*
X139605300Y-90978100D02*
X139605300Y-90170000D01*
X138430000Y-90170000D02*
X139605300Y-90170000D01*
X160020000Y-101600000D02*
X160020000Y-100474700D01*
X154940000Y-101600000D02*
X146080300Y-92740300D01*
X173985000Y-137055300D02*
X173985000Y-135784900D01*
X173985000Y-135784900D02*
X172809800Y-134609700D01*
X156210000Y-119380000D02*
X156210000Y-118254700D01*
X156210000Y-118254700D02*
X155084700Y-117129400D01*
X155084700Y-117129400D02*
X155084700Y-107125100D01*
X155084700Y-107125100D02*
X152908700Y-104949100D01*
X154940000Y-87485300D02*
X161290000Y-93835300D01*
X161290000Y-93835300D02*
X161290000Y-102901500D01*
X161290000Y-102901500D02*
X166865200Y-108476700D01*
X166865200Y-108476700D02*
X166865200Y-109945300D01*
X154940000Y-86360000D02*
X154940000Y-87485300D01*
X187960000Y-118254700D02*
X189085300Y-117129400D01*
X189085300Y-117129400D02*
X189085300Y-85856500D01*
X189085300Y-85856500D02*
X187986000Y-84757200D01*
X187986000Y-84757200D02*
X162466800Y-84757200D01*
X162466800Y-84757200D02*
X161145300Y-86078700D01*
X161145300Y-86078700D02*
X161145300Y-86360000D01*
X187960000Y-119380000D02*
X187960000Y-118254700D01*
X160020000Y-86360000D02*
X161145300Y-86360000D01*
X187960000Y-120505300D02*
X187558200Y-120505300D01*
X187558200Y-120505300D02*
X178907100Y-129156400D01*
X187960000Y-119380000D02*
X187960000Y-120505300D01*
X172720000Y-87485300D02*
X173910600Y-88675900D01*
X173910600Y-88675900D02*
X173910600Y-104343900D01*
X173910600Y-104343900D02*
X171044300Y-107210200D01*
X171044300Y-107210200D02*
X171044300Y-130054800D01*
X171044300Y-130054800D02*
X166890000Y-134209100D01*
X166890000Y-134209100D02*
X166890000Y-136754400D01*
X172720000Y-86360000D02*
X172720000Y-87485300D01*
X142510100Y-101484800D02*
X142510100Y-103672000D01*
X142510100Y-103672000D02*
X148377800Y-109539700D01*
X148377800Y-109539700D02*
X150595100Y-109539700D01*
X150595100Y-109539700D02*
X152319600Y-111264200D01*
X152319600Y-111264200D02*
X152319600Y-118025800D01*
X153839100Y-94687200D02*
X158750000Y-99598100D01*
X158750000Y-99598100D02*
X158750000Y-106248900D01*
X158750000Y-106248900D02*
X166134100Y-113633000D01*
X166134100Y-113633000D02*
X166134100Y-124204100D01*
X166134100Y-124204100D02*
X160832300Y-129505900D01*
X182880000Y-111760000D02*
X182880000Y-119380000D01*
X151130000Y-119380000D02*
X151130000Y-118254700D01*
X151130000Y-111760000D02*
X151130000Y-112885300D01*
X151130000Y-112885300D02*
X151130000Y-118254700D01*
X165389900Y-104975400D02*
X165389900Y-104975500D01*
X165389900Y-104975500D02*
X165686700Y-104975500D01*
X165686700Y-104975500D02*
X168071000Y-107359800D01*
X168071000Y-107359800D02*
X168071000Y-125203900D01*
X168071000Y-125203900D02*
X157095000Y-136179900D01*
X157095000Y-136179900D02*
X154248000Y-136179900D01*
X154248000Y-136179900D02*
X152815500Y-137612400D01*
X150647900Y-120505300D02*
X151700800Y-120505300D01*
X151700800Y-120505300D02*
X152544700Y-119661400D01*
X152544700Y-119661400D02*
X152544700Y-119380000D01*
X148590000Y-112885300D02*
X149715300Y-114010600D01*
X149715300Y-114010600D02*
X149715300Y-119572700D01*
X149715300Y-119572700D02*
X150647900Y-120505300D01*
X150647900Y-120505300D02*
X149860100Y-121293100D01*
X149860100Y-121293100D02*
X149860100Y-137527800D01*
X153670000Y-119380000D02*
X152544700Y-119380000D01*
X148590000Y-111760000D02*
X148590000Y-112885300D01*
X180340000Y-111760000D02*
X180340000Y-112885300D01*
X185420000Y-119380000D02*
X184294700Y-119380000D01*
X184294700Y-119380000D02*
X184294700Y-119661300D01*
X184294700Y-119661300D02*
X183444200Y-120511800D01*
X183444200Y-120511800D02*
X182392000Y-120511800D01*
X182392000Y-120511800D02*
X181465300Y-119585100D01*
X181465300Y-119585100D02*
X181465300Y-114010600D01*
X181465300Y-114010600D02*
X180340000Y-112885300D01*
X165100000Y-101600000D02*
X165100000Y-95487000D01*
X165100000Y-95487000D02*
X158013700Y-88400700D01*
X143510000Y-125730000D02*
X143510000Y-124604700D01*
X143510000Y-124604700D02*
X144688400Y-123426300D01*
X144688400Y-123426300D02*
X144688400Y-117809500D01*
X143510000Y-131802400D02*
X143510000Y-125730000D01*
X152255300Y-133350000D02*
X152255300Y-133772000D01*
X152255300Y-133772000D02*
X153087800Y-134604500D01*
X153087800Y-134604500D02*
X156759700Y-134604500D01*
X156759700Y-134604500D02*
X166596200Y-124768000D01*
X166596200Y-124768000D02*
X166596200Y-111594900D01*
X166596200Y-111594900D02*
X164717100Y-109715800D01*
X164717100Y-109715800D02*
X164717100Y-108821100D01*
X151130000Y-133350000D02*
X152255300Y-133350000D01*
X138430000Y-107950000D02*
X138430000Y-106824700D01*
X135890000Y-92710000D02*
X134714700Y-92710000D01*
X138430000Y-106824700D02*
X138148700Y-106824700D01*
X138148700Y-106824700D02*
X132174600Y-100850600D01*
X132174600Y-100850600D02*
X132174600Y-92184400D01*
X132174600Y-92184400D02*
X132824300Y-91534700D01*
X132824300Y-91534700D02*
X133906800Y-91534700D01*
X133906800Y-91534700D02*
X134714700Y-92342600D01*
X134714700Y-92342600D02*
X134714700Y-92710000D01*
X146050000Y-133350000D02*
X146050000Y-132224700D01*
X148590000Y-119380000D02*
X148590000Y-120505300D01*
X148590000Y-120505300D02*
X147175300Y-121920000D01*
X147175300Y-121920000D02*
X147175300Y-131099400D01*
X147175300Y-131099400D02*
X146050000Y-132224700D01*
X172720000Y-119380000D02*
X172720000Y-118254700D01*
X175491300Y-107808200D02*
X174134600Y-109164900D01*
X174134600Y-109164900D02*
X174134600Y-116840100D01*
X174134600Y-116840100D02*
X172720000Y-118254700D01*
X180340000Y-102725300D02*
X180340000Y-106842400D01*
X180340000Y-106842400D02*
X176658200Y-110524200D01*
X176658200Y-110524200D02*
X176658200Y-114429500D01*
X176658200Y-114429500D02*
X175260000Y-115827700D01*
X175260000Y-115827700D02*
X175260000Y-119380000D01*
X180340000Y-101600000D02*
X180340000Y-102725300D01*
X177800000Y-111760000D02*
X177800000Y-110634700D01*
X187960000Y-86360000D02*
X187960000Y-87485300D01*
X187960000Y-87485300D02*
X186834700Y-88610600D01*
X186834700Y-88610600D02*
X186834700Y-101881300D01*
X186834700Y-101881300D02*
X178081300Y-110634700D01*
X178081300Y-110634700D02*
X177800000Y-110634700D01*
X185420000Y-86360000D02*
X185420000Y-87485300D01*
X185420000Y-87485300D02*
X179193800Y-93711500D01*
X179193800Y-93711500D02*
X179193800Y-106087700D01*
X179193800Y-106087700D02*
X175260000Y-110021500D01*
X175260000Y-110021500D02*
X175260000Y-111760000D01*
M02*
