G04 #@! TF.GenerationSoftware,KiCad,Pcbnew,(5.1.5)-3*
G04 #@! TF.CreationDate,2020-04-03T16:25:14+03:00*
G04 #@! TF.ProjectId,MSX USB Drive,4d535820-5553-4422-9044-726976652e6b,rev?*
G04 #@! TF.SameCoordinates,Original*
G04 #@! TF.FileFunction,Legend,Top*
G04 #@! TF.FilePolarity,Positive*
%FSLAX46Y46*%
G04 Gerber Fmt 4.6, Leading zero omitted, Abs format (unit mm)*
G04 Created by KiCad (PCBNEW (5.1.5)-3) date 2020-04-03 16:25:14*
%MOMM*%
%LPD*%
G04 APERTURE LIST*
%ADD10C,0.120000*%
%ADD11C,0.150000*%
G04 APERTURE END LIST*
D10*
X198850000Y-94000000D02*
G75*
G03X198850000Y-94000000I-3270000J0D01*
G01*
X162020000Y-129560000D02*
G75*
G03X162020000Y-129560000I-3270000J0D01*
G01*
X149320000Y-104160000D02*
G75*
G03X149320000Y-104160000I-3270000J0D01*
G01*
X167100000Y-115590000D02*
G75*
G03X167100000Y-115590000I-3270000J0D01*
G01*
X198850000Y-115590000D02*
G75*
G03X198850000Y-115590000I-3270000J0D01*
G01*
X121860000Y-88840000D02*
X121860000Y-94040000D01*
X139700000Y-88840000D02*
X121860000Y-88840000D01*
X142300000Y-94040000D02*
X121860000Y-94040000D01*
X139700000Y-88840000D02*
X139700000Y-91440000D01*
X139700000Y-91440000D02*
X142300000Y-91440000D01*
X142300000Y-91440000D02*
X142300000Y-94040000D01*
X140970000Y-88840000D02*
X142300000Y-88840000D01*
X142300000Y-88840000D02*
X142300000Y-90170000D01*
X155000000Y-130540000D02*
G75*
G02X155000000Y-128540000I0J1000000D01*
G01*
X155000000Y-128540000D02*
X155000000Y-126890000D01*
X155000000Y-126890000D02*
X137100000Y-126890000D01*
X137100000Y-126890000D02*
X137100000Y-132190000D01*
X137100000Y-132190000D02*
X155000000Y-132190000D01*
X155000000Y-132190000D02*
X155000000Y-130540000D01*
X155060000Y-124400000D02*
X137040000Y-124400000D01*
X137040000Y-124400000D02*
X137040000Y-134680000D01*
X137040000Y-134680000D02*
X155060000Y-134680000D01*
X155060000Y-134680000D02*
X155060000Y-124400000D01*
X142300000Y-105140000D02*
G75*
G02X142300000Y-103140000I0J1000000D01*
G01*
X142300000Y-103140000D02*
X142300000Y-101490000D01*
X142300000Y-101490000D02*
X116780000Y-101490000D01*
X116780000Y-101490000D02*
X116780000Y-106790000D01*
X116780000Y-106790000D02*
X142300000Y-106790000D01*
X142300000Y-106790000D02*
X142300000Y-105140000D01*
X142360000Y-99000000D02*
X116720000Y-99000000D01*
X116720000Y-99000000D02*
X116720000Y-109280000D01*
X116720000Y-109280000D02*
X142360000Y-109280000D01*
X142360000Y-109280000D02*
X142360000Y-99000000D01*
X191830000Y-116570000D02*
G75*
G02X191830000Y-114570000I0J1000000D01*
G01*
X191830000Y-114570000D02*
X191830000Y-112920000D01*
X191830000Y-112920000D02*
X171390000Y-112920000D01*
X171390000Y-112920000D02*
X171390000Y-118220000D01*
X171390000Y-118220000D02*
X191830000Y-118220000D01*
X191830000Y-118220000D02*
X191830000Y-116570000D01*
X191890000Y-110430000D02*
X171330000Y-110430000D01*
X171330000Y-110430000D02*
X171330000Y-120710000D01*
X171330000Y-120710000D02*
X191890000Y-120710000D01*
X191890000Y-120710000D02*
X191890000Y-110430000D01*
X160140000Y-120710000D02*
X160140000Y-110430000D01*
X139580000Y-120710000D02*
X160140000Y-120710000D01*
X139580000Y-110430000D02*
X139580000Y-120710000D01*
X160140000Y-110430000D02*
X139580000Y-110430000D01*
X160080000Y-118220000D02*
X160080000Y-116570000D01*
X139640000Y-118220000D02*
X160080000Y-118220000D01*
X139640000Y-112920000D02*
X139640000Y-118220000D01*
X160080000Y-112920000D02*
X139640000Y-112920000D01*
X160080000Y-114570000D02*
X160080000Y-112920000D01*
X160080000Y-116570000D02*
G75*
G02X160080000Y-114570000I0J1000000D01*
G01*
X191830000Y-94980000D02*
G75*
G02X191830000Y-92980000I0J1000000D01*
G01*
X191830000Y-92980000D02*
X191830000Y-87520000D01*
X191830000Y-87520000D02*
X151070000Y-87520000D01*
X151070000Y-87520000D02*
X151070000Y-100440000D01*
X151070000Y-100440000D02*
X191830000Y-100440000D01*
X191830000Y-100440000D02*
X191830000Y-94980000D01*
X191890000Y-85030000D02*
X151010000Y-85030000D01*
X151010000Y-85030000D02*
X151010000Y-102930000D01*
X151010000Y-102930000D02*
X191890000Y-102930000D01*
X191890000Y-102930000D02*
X191890000Y-85030000D01*
D11*
X191537142Y-94166666D02*
X191584761Y-94214285D01*
X191632380Y-94357142D01*
X191632380Y-94452380D01*
X191584761Y-94595238D01*
X191489523Y-94690476D01*
X191394285Y-94738095D01*
X191203809Y-94785714D01*
X191060952Y-94785714D01*
X190870476Y-94738095D01*
X190775238Y-94690476D01*
X190680000Y-94595238D01*
X190632380Y-94452380D01*
X190632380Y-94357142D01*
X190680000Y-94214285D01*
X190727619Y-94166666D01*
X191632380Y-93214285D02*
X191632380Y-93785714D01*
X191632380Y-93500000D02*
X190632380Y-93500000D01*
X190775238Y-93595238D01*
X190870476Y-93690476D01*
X190918095Y-93785714D01*
X154707142Y-129726666D02*
X154754761Y-129774285D01*
X154802380Y-129917142D01*
X154802380Y-130012380D01*
X154754761Y-130155238D01*
X154659523Y-130250476D01*
X154564285Y-130298095D01*
X154373809Y-130345714D01*
X154230952Y-130345714D01*
X154040476Y-130298095D01*
X153945238Y-130250476D01*
X153850000Y-130155238D01*
X153802380Y-130012380D01*
X153802380Y-129917142D01*
X153850000Y-129774285D01*
X153897619Y-129726666D01*
X153897619Y-129345714D02*
X153850000Y-129298095D01*
X153802380Y-129202857D01*
X153802380Y-128964761D01*
X153850000Y-128869523D01*
X153897619Y-128821904D01*
X153992857Y-128774285D01*
X154088095Y-128774285D01*
X154230952Y-128821904D01*
X154802380Y-129393333D01*
X154802380Y-128774285D01*
X142007142Y-104326666D02*
X142054761Y-104374285D01*
X142102380Y-104517142D01*
X142102380Y-104612380D01*
X142054761Y-104755238D01*
X141959523Y-104850476D01*
X141864285Y-104898095D01*
X141673809Y-104945714D01*
X141530952Y-104945714D01*
X141340476Y-104898095D01*
X141245238Y-104850476D01*
X141150000Y-104755238D01*
X141102380Y-104612380D01*
X141102380Y-104517142D01*
X141150000Y-104374285D01*
X141197619Y-104326666D01*
X141102380Y-103993333D02*
X141102380Y-103374285D01*
X141483333Y-103707619D01*
X141483333Y-103564761D01*
X141530952Y-103469523D01*
X141578571Y-103421904D01*
X141673809Y-103374285D01*
X141911904Y-103374285D01*
X142007142Y-103421904D01*
X142054761Y-103469523D01*
X142102380Y-103564761D01*
X142102380Y-103850476D01*
X142054761Y-103945714D01*
X142007142Y-103993333D01*
X159787142Y-115756666D02*
X159834761Y-115804285D01*
X159882380Y-115947142D01*
X159882380Y-116042380D01*
X159834761Y-116185238D01*
X159739523Y-116280476D01*
X159644285Y-116328095D01*
X159453809Y-116375714D01*
X159310952Y-116375714D01*
X159120476Y-116328095D01*
X159025238Y-116280476D01*
X158930000Y-116185238D01*
X158882380Y-116042380D01*
X158882380Y-115947142D01*
X158930000Y-115804285D01*
X158977619Y-115756666D01*
X159215714Y-114899523D02*
X159882380Y-114899523D01*
X158834761Y-115137619D02*
X159549047Y-115375714D01*
X159549047Y-114756666D01*
X191537142Y-115756666D02*
X191584761Y-115804285D01*
X191632380Y-115947142D01*
X191632380Y-116042380D01*
X191584761Y-116185238D01*
X191489523Y-116280476D01*
X191394285Y-116328095D01*
X191203809Y-116375714D01*
X191060952Y-116375714D01*
X190870476Y-116328095D01*
X190775238Y-116280476D01*
X190680000Y-116185238D01*
X190632380Y-116042380D01*
X190632380Y-115947142D01*
X190680000Y-115804285D01*
X190727619Y-115756666D01*
X190632380Y-114851904D02*
X190632380Y-115328095D01*
X191108571Y-115375714D01*
X191060952Y-115328095D01*
X191013333Y-115232857D01*
X191013333Y-114994761D01*
X191060952Y-114899523D01*
X191108571Y-114851904D01*
X191203809Y-114804285D01*
X191441904Y-114804285D01*
X191537142Y-114851904D01*
X191584761Y-114899523D01*
X191632380Y-114994761D01*
X191632380Y-115232857D01*
X191584761Y-115328095D01*
X191537142Y-115375714D01*
X130488666Y-150074380D02*
X130488666Y-150788666D01*
X130441047Y-150931523D01*
X130345809Y-151026761D01*
X130202952Y-151074380D01*
X130107714Y-151074380D01*
X131488666Y-151074380D02*
X130917238Y-151074380D01*
X131202952Y-151074380D02*
X131202952Y-150074380D01*
X131107714Y-150217238D01*
X131012476Y-150312476D01*
X130917238Y-150360095D01*
X142752380Y-91773333D02*
X143466666Y-91773333D01*
X143609523Y-91820952D01*
X143704761Y-91916190D01*
X143752380Y-92059047D01*
X143752380Y-92154285D01*
X142847619Y-91344761D02*
X142800000Y-91297142D01*
X142752380Y-91201904D01*
X142752380Y-90963809D01*
X142800000Y-90868571D01*
X142847619Y-90820952D01*
X142942857Y-90773333D01*
X143038095Y-90773333D01*
X143180952Y-90820952D01*
X143752380Y-91392380D01*
X143752380Y-90773333D01*
X155452380Y-130301904D02*
X156261904Y-130301904D01*
X156357142Y-130254285D01*
X156404761Y-130206666D01*
X156452380Y-130111428D01*
X156452380Y-129920952D01*
X156404761Y-129825714D01*
X156357142Y-129778095D01*
X156261904Y-129730476D01*
X155452380Y-129730476D01*
X156452380Y-128730476D02*
X156452380Y-129301904D01*
X156452380Y-129016190D02*
X155452380Y-129016190D01*
X155595238Y-129111428D01*
X155690476Y-129206666D01*
X155738095Y-129301904D01*
X142752380Y-104901904D02*
X143561904Y-104901904D01*
X143657142Y-104854285D01*
X143704761Y-104806666D01*
X143752380Y-104711428D01*
X143752380Y-104520952D01*
X143704761Y-104425714D01*
X143657142Y-104378095D01*
X143561904Y-104330476D01*
X142752380Y-104330476D01*
X142847619Y-103901904D02*
X142800000Y-103854285D01*
X142752380Y-103759047D01*
X142752380Y-103520952D01*
X142800000Y-103425714D01*
X142847619Y-103378095D01*
X142942857Y-103330476D01*
X143038095Y-103330476D01*
X143180952Y-103378095D01*
X143752380Y-103949523D01*
X143752380Y-103330476D01*
X192282380Y-116331904D02*
X193091904Y-116331904D01*
X193187142Y-116284285D01*
X193234761Y-116236666D01*
X193282380Y-116141428D01*
X193282380Y-115950952D01*
X193234761Y-115855714D01*
X193187142Y-115808095D01*
X193091904Y-115760476D01*
X192282380Y-115760476D01*
X192282380Y-115379523D02*
X192282380Y-114760476D01*
X192663333Y-115093809D01*
X192663333Y-114950952D01*
X192710952Y-114855714D01*
X192758571Y-114808095D01*
X192853809Y-114760476D01*
X193091904Y-114760476D01*
X193187142Y-114808095D01*
X193234761Y-114855714D01*
X193282380Y-114950952D01*
X193282380Y-115236666D01*
X193234761Y-115331904D01*
X193187142Y-115379523D01*
X160532380Y-116331904D02*
X161341904Y-116331904D01*
X161437142Y-116284285D01*
X161484761Y-116236666D01*
X161532380Y-116141428D01*
X161532380Y-115950952D01*
X161484761Y-115855714D01*
X161437142Y-115808095D01*
X161341904Y-115760476D01*
X160532380Y-115760476D01*
X160865714Y-114855714D02*
X161532380Y-114855714D01*
X160484761Y-115093809D02*
X161199047Y-115331904D01*
X161199047Y-114712857D01*
X192282380Y-94741904D02*
X193091904Y-94741904D01*
X193187142Y-94694285D01*
X193234761Y-94646666D01*
X193282380Y-94551428D01*
X193282380Y-94360952D01*
X193234761Y-94265714D01*
X193187142Y-94218095D01*
X193091904Y-94170476D01*
X192282380Y-94170476D01*
X192282380Y-93218095D02*
X192282380Y-93694285D01*
X192758571Y-93741904D01*
X192710952Y-93694285D01*
X192663333Y-93599047D01*
X192663333Y-93360952D01*
X192710952Y-93265714D01*
X192758571Y-93218095D01*
X192853809Y-93170476D01*
X193091904Y-93170476D01*
X193187142Y-93218095D01*
X193234761Y-93265714D01*
X193282380Y-93360952D01*
X193282380Y-93599047D01*
X193234761Y-93694285D01*
X193187142Y-93741904D01*
M02*
